<svg fill="none" height="24" viewBox="0 0 24 24" width="24" xmlns="http://www.w3.org/2000/svg"><g stroke="#292d32" stroke-linecap="round" stroke-linejoin="round"><path d="m10 22h4c5 0 7-2 7-7v-6c0-5-2-7-7-7h-4c-5 0-7 2-7 7v6c0 5 2 7 7 7z" stroke-width="1.5"/><path d="m16.5 7.57996v1c0 .82-.67 1.50004-1.5 1.50004h-6c-.82 0-1.5-.67004-1.5-1.50004v-1c0-.82.67-1.5 1.5-1.5h6c.83 0 1.5.67 1.5 1.5z" stroke-width="1.5"/><g stroke-width="2"><path d="m8.13612 14h.01155"/><path d="m11.9952 14h.0116"/><path d="m15.8544 14h.0115"/><path d="m8.13612 17.5h.01155"/><path d="m11.9952 17.5h.0116"/><path d="m15.8544 17.5h.0115"/></g></g></svg>